<svg xmlns="http://www.w3.org/2000/svg" xml:space="preserve" viewBox="0 0 320 320"><path fill="#3eb157" d="M248.1 319.7H72.38C32.54 319.7.24 287.4.24 247.56V71.84C.24 32 32.53-.3 72.38-.3H248.1c39.84 0 72.14 32.3 72.14 72.14v175.72c0 39.84-32.3 72.14-72.14 72.14"/><path fill="#fff" d="M266.89 144.63c0-47.74-47.86-86.58-106.69-86.58-58.82 0-106.69 38.84-106.69 86.58 0 42.8 37.96 78.64 89.23 85.42 3.47.75 8.2 2.29 9.4 5.26 1.08 2.7.7 6.92.35 9.65 0 0-1.25 7.53-1.52 9.13-.47 2.7-2.14 10.55 9.24 5.75 11.39-4.8 61.44-36.18 83.82-61.94 15.45-16.96 22.86-34.17 22.86-53.27"/><path fill="#3eb157" d="M231.4 172.19h-29.97c-1.13 0-2.04-.91-2.04-2.04V123.6c0-1.13.91-2.04 2.04-2.04h29.97c1.12 0 2.04.92 2.04 2.04v7.57c0 1.13-.91 2.04-2.04 2.04h-20.37v7.86h20.37c1.12 0 2.04.92 2.04 2.04v7.57c0 1.13-.91 2.04-2.04 2.04h-20.37v7.86h20.37c1.12 0 2.04.92 2.04 2.04v7.57c0 1.09-.92 2-2.04 2m-110.87 0c1.12 0 2.04-.91 2.04-2.04v-7.57c0-1.12-.92-2.04-2.04-2.04h-20.37v-36.96c0-1.12-.92-2.04-2.04-2.04h-7.57c-1.13 0-2.04.91-2.04 2.04v46.56c0 1.13.91 2.04 2.04 2.04h29.98zm18.04-50.63H131c-1.12 0-2.04.91-2.04 2.04v46.56c0 1.12.91 2.04 2.04 2.04h7.57c1.13 0 2.04-.91 2.04-2.04V123.6c0-1.13-.91-2.04-2.04-2.04m51.51 0h-7.57c-1.13 0-2.04.91-2.04 2.04v27.65l-21.3-28.77c-.05-.07-.11-.14-.16-.21l-.01-.01c-.04-.04-.08-.09-.12-.13-.01-.01-.03-.02-.04-.03-.04-.03-.07-.06-.11-.09-.02-.01-.04-.03-.06-.04-.03-.03-.07-.05-.11-.07-.02-.01-.04-.03-.06-.04-.04-.02-.07-.04-.11-.06l-.06-.03c-.04-.02-.08-.04-.12-.05a.14.14 0 0 0-.07-.02c-.04-.01-.08-.03-.12-.04-.02-.01-.05-.01-.07-.02l-.12-.03c-.03-.01-.06-.01-.09-.01-.04-.01-.07-.01-.11-.01s-.07 0-.11-.01h-7.59c-1.12 0-2.04.91-2.04 2.04v46.56c0 1.12.91 2.04 2.04 2.04h7.57c1.13 0 2.04-.91 2.04-2.04v-27.65l21.33 28.81c.15.21.33.38.53.51.01.01.02.01.02.02.04.03.08.05.13.08l.06.03c.03.02.07.03.1.05s.07.03.1.04c.02.01.04.02.06.02.05.02.09.03.14.04.01 0 .02.01.03.01.17.04.35.07.53.07h7.52c1.12 0 2.04-.91 2.04-2.04v-46.56a2.06 2.06 0 0 0-2.05-2.05"/></svg>